<?xml version="1.0" encoding="utf-8"?>
<!-- Generator: Adobe Illustrator 19.2.1, SVG Export Plug-In . SVG Version: 6.00 Build 0)  -->
<svg version="1.1" xmlns="http://www.w3.org/2000/svg" xmlns:xlink="http://www.w3.org/1999/xlink" x="0px" y="0px"
	 viewBox="0 0 1600 1200" style="enable-background:new 0 0 1600 1200;" xml:space="preserve">
<style type="text/css">
	.st0{display:none;}
	.st1{display:inline;fill:#3498DB;}
	.st2{fill:#FFFFFF;}
</style>
<g id="Layer_2" class="st0">
	<rect class="st1" width="1600" height="1200"/>
</g>
<g id="Layer_1">
	<g>
		<g>
			<path class="st2" d="M600.9,533.8c6.3,0,12.3,1.2,17.9,3.6c5.6,2.4,10.5,5.7,14.7,9.9c4.2,4.2,7.5,9.1,10,14.7
				c2.5,5.6,3.7,11.6,3.7,17.9c0,6.4-1.2,12.5-3.7,18.1c-2.5,5.6-5.8,10.5-10,14.7c-4.2,4.2-9.1,7.5-14.7,9.9
				c-5.6,2.4-11.6,3.6-17.9,3.6h-34.5v40.2h-17.8V533.8H600.9z M600.9,608.7c3.9,0,7.6-0.8,11-2.3c3.4-1.5,6.4-3.6,9-6.2
				c2.6-2.6,4.6-5.6,6.1-9.1c1.5-3.5,2.2-7.2,2.2-11.3c0-3.9-0.7-7.6-2.2-11.1c-1.5-3.5-3.5-6.5-6.1-9.1c-2.6-2.6-5.6-4.6-9-6.2
				c-3.4-1.5-7.1-2.3-11-2.3h-34.5v57.5H600.9z"/>
			<path class="st2" d="M686.4,551.1v40.2h65.4v17.4h-65.4v40.2h70.5v17.4h-88.6V533.6h88.6v17.4H686.4z"/>
			<path class="st2" d="M909.2,601.5c-0.3,9.5-2.2,18.4-6,26.6c-3.7,8.3-8.8,15.5-15.1,21.7c-6.3,6.2-13.7,11.1-22,14.6
				c-8.3,3.5-17.3,5.3-26.7,5.3c-9.7,0-18.8-1.8-27.3-5.5c-8.5-3.7-15.8-8.7-22.1-15c-6.3-6.3-11.2-13.7-14.9-22.2
				c-3.7-8.5-5.5-17.5-5.5-27.1c0-9.6,1.8-18.6,5.5-27.1c3.7-8.5,8.6-15.9,14.9-22.2c6.3-6.3,13.6-11.3,22.1-15
				c8.5-3.7,17.6-5.5,27.3-5.5c12.3,0,23.5,2.9,33.8,8.6c10.2,5.8,18.5,13.4,24.7,23l-14.6,9.7c-4.7-7.2-10.9-13-18.6-17.4
				c-7.7-4.4-16.1-6.5-25.2-6.5c-7.2,0-13.9,1.4-20.2,4.1c-6.3,2.7-11.8,6.4-16.5,11.2s-8.5,10.3-11.2,16.7
				c-2.7,6.4-4.1,13.2-4.1,20.4s1.4,14,4.1,20.4c2.7,6.4,6.4,11.9,11.2,16.7s10.2,8.5,16.5,11.2c6.3,2.7,13,4.1,20.2,4.1
				c5.4,0,10.7-0.8,15.7-2.5c5.1-1.6,9.7-3.9,13.9-6.9c4.2-3,8-6.5,11.3-10.5c3.3-4,5.9-8.5,7.8-13.5h-37.9v-17.4H909.2z"/>
			<path class="st2" d="M983,533.6l55.9,132.7h-18.8l-16.1-38.1h-59.4l-15.9,38.1h-19l55.9-132.7H983z M952.1,610.8h44.6l-22.2-52.7
				L952.1,610.8z"/>
			<path class="st2" d="M1093.5,588.1c9.6,2.4,17.4,5.3,23.4,8.7c6,3.4,10.7,7,14.1,10.9c3.4,3.9,5.7,7.7,6.9,11.7
				c1.2,3.9,1.8,7.7,1.8,11.2c0,5.4-1.3,10.5-3.8,15.3c-2.5,4.7-6,8.9-10.3,12.4c-4.4,3.5-9.5,6.4-15.4,8.4
				c-5.9,2.1-12.2,3.1-18.9,3.1c-6.2,0-12.1-0.9-17.6-2.7c-5.6-1.8-10.5-4.2-14.7-7.4c-4.2-3.2-7.7-6.9-10.5-11.1
				c-2.8-4.2-4.5-8.8-5.1-13.7l15.7-3.2c1.8,5.8,5.5,10.7,11.3,14.7c5.8,4,12.7,6,21,6c4.2,0,8.1-0.6,11.9-1.7
				c3.7-1.1,7-2.7,9.8-4.7c2.8-2,5-4.3,6.5-6.9c1.6-2.6,2.4-5.4,2.4-8.4c0-11.6-10.9-20.2-32.6-25.6c-5.2-1.3-10.4-2.7-15.7-4.4
				c-5.3-1.6-10.1-3.8-14.3-6.5c-4.2-2.7-7.7-6.2-10.4-10.3c-2.7-4.2-4.1-9.5-4.1-15.9c0-5.4,1.1-10.5,3.2-15.1
				c2.1-4.6,5.2-8.6,9.1-11.9c3.9-3.3,8.7-5.9,14.2-7.8c5.6-1.9,11.7-2.8,18.4-2.8c5.9,0,11.5,0.9,16.7,2.7
				c5.2,1.8,9.7,4.2,13.7,7.3c3.9,3.1,7.1,6.8,9.6,11c2.5,4.2,4,8.9,4.6,13.9l-15.7,3.4c-1.4-6.1-4.6-11.1-9.5-15
				c-4.9-3.9-11.4-5.9-19.3-5.9c-8.5,0-15.1,1.9-19.8,5.7s-7.1,8.6-7.1,14.4c0,2.3,0.4,4.3,1.2,6.2c0.8,1.8,2.3,3.5,4.5,5
				c2.2,1.5,5.3,3,9.3,4.5C1081.8,584.9,1087,586.4,1093.5,588.1z"/>
			<path class="st2" d="M1162.2,533.6h17.8v132.7h-17.8V533.6z"/>
		</g>
		<path class="st2" d="M380,533.7v8.6c0,23.2,17,42.6,39.2,46.4c3.3,19.6,18.9,35.2,38.5,38.5c3.8,22.2,23.1,39.2,46.4,39.2h8.6
			v-38.5v-17.1v-21.4v-17.1v-38.5H380z M495.4,647.9c-9.6-2.9-17.3-10.5-20.1-20.1h20.1V647.9z M495.4,610.7h-29.9
			c-13.5,0-25-9-28.7-21.4h58.6V610.7z M427,572.2c-13.5,0-25-9-28.7-21.4h97.1v21.4H427z"/>
	</g>
</g>
</svg>
